<?xml version="1.0" encoding="utf-8" standalone="no"?>
<!DOCTYPE svg PUBLIC "-//W3C//DTD SVG 1.1//EN"
  "http://www.w3.org/Graphics/SVG/1.1/DTD/svg11.dtd">
<!-- Created with matplotlib (https://matplotlib.org/) -->
<svg height="576.72pt" version="1.1" viewBox="0 0 1105.92 576.72" width="1105.92pt" xmlns="http://www.w3.org/2000/svg" xmlns:xlink="http://www.w3.org/1999/xlink">
 <metadata>
  <rdf:RDF xmlns:cc="http://creativecommons.org/ns#" xmlns:dc="http://purl.org/dc/elements/1.1/" xmlns:rdf="http://www.w3.org/1999/02/22-rdf-syntax-ns#">
   <cc:Work>
    <dc:type rdf:resource="http://purl.org/dc/dcmitype/StillImage"/>
    <dc:date>2021-03-20T20:09:10.843262</dc:date>
    <dc:format>image/svg+xml</dc:format>
    <dc:creator>
     <cc:Agent>
      <dc:title>Matplotlib v3.3.4, https://matplotlib.org/</dc:title>
     </cc:Agent>
    </dc:creator>
   </cc:Work>
  </rdf:RDF>
 </metadata>
 <defs>
  <style type="text/css">*{stroke-linecap:butt;stroke-linejoin:round;}</style>
 </defs>
 <g id="figure_1">
  <g id="patch_1">
   <path d="M 0 576.72 
L 1105.92 576.72 
L 1105.92 0 
L 0 0 
z
" style="fill:#ffffff;"/>
  </g>
  <g id="axes_1">
   <g id="patch_2">
    <path d="M 138.24 461.376 
L 995.328 461.376 
L 995.328 69.2064 
L 138.24 69.2064 
z
" style="fill:#ffffff;"/>
   </g>
   <g id="matplotlib.axis_1">
    <g id="xtick_1">
     <g id="line2d_1">
      <path clip-path="url(#pff41de353e)" d="M 177.073718 461.376 
L 177.073718 69.2064 
" style="fill:none;stroke:#b0b0b0;stroke-linecap:square;stroke-width:0.8;"/>
     </g>
     <g id="line2d_2">
      <defs>
       <path d="M 0 0 
L 0 3.5 
" id="m87ab2f89a5" style="stroke:#000000;stroke-width:0.8;"/>
      </defs>
      <g>
       <use style="stroke:#000000;stroke-width:0.8;" x="177.073718" xlink:href="#m87ab2f89a5" y="461.376"/>
      </g>
     </g>
     <g id="text_1">
      <!-- 2004 -->
      <g transform="translate(153.993528 487.68144)rotate(-30)scale(0.1 -0.1)">
       <defs>
        <path d="M 19.1875 8.296875 
L 53.609375 8.296875 
L 53.609375 0 
L 7.328125 0 
L 7.328125 8.296875 
Q 12.9375 14.109375 22.625 23.890625 
Q 32.328125 33.6875 34.8125 36.53125 
Q 39.546875 41.84375 41.421875 45.53125 
Q 43.3125 49.21875 43.3125 52.78125 
Q 43.3125 58.59375 39.234375 62.25 
Q 35.15625 65.921875 28.609375 65.921875 
Q 23.96875 65.921875 18.8125 64.3125 
Q 13.671875 62.703125 7.8125 59.421875 
L 7.8125 69.390625 
Q 13.765625 71.78125 18.9375 73 
Q 24.125 74.21875 28.421875 74.21875 
Q 39.75 74.21875 46.484375 68.546875 
Q 53.21875 62.890625 53.21875 53.421875 
Q 53.21875 48.921875 51.53125 44.890625 
Q 49.859375 40.875 45.40625 35.40625 
Q 44.1875 33.984375 37.640625 27.21875 
Q 31.109375 20.453125 19.1875 8.296875 
z
" id="DejaVuSans-50"/>
        <path d="M 31.78125 66.40625 
Q 24.171875 66.40625 20.328125 58.90625 
Q 16.5 51.421875 16.5 36.375 
Q 16.5 21.390625 20.328125 13.890625 
Q 24.171875 6.390625 31.78125 6.390625 
Q 39.453125 6.390625 43.28125 13.890625 
Q 47.125 21.390625 47.125 36.375 
Q 47.125 51.421875 43.28125 58.90625 
Q 39.453125 66.40625 31.78125 66.40625 
z
M 31.78125 74.21875 
Q 44.046875 74.21875 50.515625 64.515625 
Q 56.984375 54.828125 56.984375 36.375 
Q 56.984375 17.96875 50.515625 8.265625 
Q 44.046875 -1.421875 31.78125 -1.421875 
Q 19.53125 -1.421875 13.0625 8.265625 
Q 6.59375 17.96875 6.59375 36.375 
Q 6.59375 54.828125 13.0625 64.515625 
Q 19.53125 74.21875 31.78125 74.21875 
z
" id="DejaVuSans-48"/>
        <path d="M 37.796875 64.3125 
L 12.890625 25.390625 
L 37.796875 25.390625 
z
M 35.203125 72.90625 
L 47.609375 72.90625 
L 47.609375 25.390625 
L 58.015625 25.390625 
L 58.015625 17.1875 
L 47.609375 17.1875 
L 47.609375 0 
L 37.796875 0 
L 37.796875 17.1875 
L 4.890625 17.1875 
L 4.890625 26.703125 
z
" id="DejaVuSans-52"/>
       </defs>
       <use xlink:href="#DejaVuSans-50"/>
       <use x="63.623047" xlink:href="#DejaVuSans-48"/>
       <use x="127.246094" xlink:href="#DejaVuSans-48"/>
       <use x="190.869141" xlink:href="#DejaVuSans-52"/>
      </g>
     </g>
    </g>
    <g id="xtick_2">
     <g id="line2d_3">
      <path clip-path="url(#pff41de353e)" d="M 268.322346 461.376 
L 268.322346 69.2064 
" style="fill:none;stroke:#b0b0b0;stroke-linecap:square;stroke-width:0.8;"/>
     </g>
     <g id="line2d_4">
      <g>
       <use style="stroke:#000000;stroke-width:0.8;" x="268.322346" xlink:href="#m87ab2f89a5" y="461.376"/>
      </g>
     </g>
     <g id="text_2">
      <!-- 2006 -->
      <g transform="translate(245.242156 487.68144)rotate(-30)scale(0.1 -0.1)">
       <defs>
        <path d="M 33.015625 40.375 
Q 26.375 40.375 22.484375 35.828125 
Q 18.609375 31.296875 18.609375 23.390625 
Q 18.609375 15.53125 22.484375 10.953125 
Q 26.375 6.390625 33.015625 6.390625 
Q 39.65625 6.390625 43.53125 10.953125 
Q 47.40625 15.53125 47.40625 23.390625 
Q 47.40625 31.296875 43.53125 35.828125 
Q 39.65625 40.375 33.015625 40.375 
z
M 52.59375 71.296875 
L 52.59375 62.3125 
Q 48.875 64.0625 45.09375 64.984375 
Q 41.3125 65.921875 37.59375 65.921875 
Q 27.828125 65.921875 22.671875 59.328125 
Q 17.53125 52.734375 16.796875 39.40625 
Q 19.671875 43.65625 24.015625 45.921875 
Q 28.375 48.1875 33.59375 48.1875 
Q 44.578125 48.1875 50.953125 41.515625 
Q 57.328125 34.859375 57.328125 23.390625 
Q 57.328125 12.15625 50.6875 5.359375 
Q 44.046875 -1.421875 33.015625 -1.421875 
Q 20.359375 -1.421875 13.671875 8.265625 
Q 6.984375 17.96875 6.984375 36.375 
Q 6.984375 53.65625 15.1875 63.9375 
Q 23.390625 74.21875 37.203125 74.21875 
Q 40.921875 74.21875 44.703125 73.484375 
Q 48.484375 72.75 52.59375 71.296875 
z
" id="DejaVuSans-54"/>
       </defs>
       <use xlink:href="#DejaVuSans-50"/>
       <use x="63.623047" xlink:href="#DejaVuSans-48"/>
       <use x="127.246094" xlink:href="#DejaVuSans-48"/>
       <use x="190.869141" xlink:href="#DejaVuSans-54"/>
      </g>
     </g>
    </g>
    <g id="xtick_3">
     <g id="line2d_5">
      <path clip-path="url(#pff41de353e)" d="M 359.446147 461.376 
L 359.446147 69.2064 
" style="fill:none;stroke:#b0b0b0;stroke-linecap:square;stroke-width:0.8;"/>
     </g>
     <g id="line2d_6">
      <g>
       <use style="stroke:#000000;stroke-width:0.8;" x="359.446147" xlink:href="#m87ab2f89a5" y="461.376"/>
      </g>
     </g>
     <g id="text_3">
      <!-- 2008 -->
      <g transform="translate(336.365956 487.68144)rotate(-30)scale(0.1 -0.1)">
       <defs>
        <path d="M 31.78125 34.625 
Q 24.75 34.625 20.71875 30.859375 
Q 16.703125 27.09375 16.703125 20.515625 
Q 16.703125 13.921875 20.71875 10.15625 
Q 24.75 6.390625 31.78125 6.390625 
Q 38.8125 6.390625 42.859375 10.171875 
Q 46.921875 13.96875 46.921875 20.515625 
Q 46.921875 27.09375 42.890625 30.859375 
Q 38.875 34.625 31.78125 34.625 
z
M 21.921875 38.8125 
Q 15.578125 40.375 12.03125 44.71875 
Q 8.5 49.078125 8.5 55.328125 
Q 8.5 64.0625 14.71875 69.140625 
Q 20.953125 74.21875 31.78125 74.21875 
Q 42.671875 74.21875 48.875 69.140625 
Q 55.078125 64.0625 55.078125 55.328125 
Q 55.078125 49.078125 51.53125 44.71875 
Q 48 40.375 41.703125 38.8125 
Q 48.828125 37.15625 52.796875 32.3125 
Q 56.78125 27.484375 56.78125 20.515625 
Q 56.78125 9.90625 50.3125 4.234375 
Q 43.84375 -1.421875 31.78125 -1.421875 
Q 19.734375 -1.421875 13.25 4.234375 
Q 6.78125 9.90625 6.78125 20.515625 
Q 6.78125 27.484375 10.78125 32.3125 
Q 14.796875 37.15625 21.921875 38.8125 
z
M 18.3125 54.390625 
Q 18.3125 48.734375 21.84375 45.5625 
Q 25.390625 42.390625 31.78125 42.390625 
Q 38.140625 42.390625 41.71875 45.5625 
Q 45.3125 48.734375 45.3125 54.390625 
Q 45.3125 60.0625 41.71875 63.234375 
Q 38.140625 66.40625 31.78125 66.40625 
Q 25.390625 66.40625 21.84375 63.234375 
Q 18.3125 60.0625 18.3125 54.390625 
z
" id="DejaVuSans-56"/>
       </defs>
       <use xlink:href="#DejaVuSans-50"/>
       <use x="63.623047" xlink:href="#DejaVuSans-48"/>
       <use x="127.246094" xlink:href="#DejaVuSans-48"/>
       <use x="190.869141" xlink:href="#DejaVuSans-56"/>
      </g>
     </g>
    </g>
    <g id="xtick_4">
     <g id="line2d_7">
      <path clip-path="url(#pff41de353e)" d="M 450.694775 461.376 
L 450.694775 69.2064 
" style="fill:none;stroke:#b0b0b0;stroke-linecap:square;stroke-width:0.8;"/>
     </g>
     <g id="line2d_8">
      <g>
       <use style="stroke:#000000;stroke-width:0.8;" x="450.694775" xlink:href="#m87ab2f89a5" y="461.376"/>
      </g>
     </g>
     <g id="text_4">
      <!-- 2010 -->
      <g transform="translate(427.614584 487.68144)rotate(-30)scale(0.1 -0.1)">
       <defs>
        <path d="M 12.40625 8.296875 
L 28.515625 8.296875 
L 28.515625 63.921875 
L 10.984375 60.40625 
L 10.984375 69.390625 
L 28.421875 72.90625 
L 38.28125 72.90625 
L 38.28125 8.296875 
L 54.390625 8.296875 
L 54.390625 0 
L 12.40625 0 
z
" id="DejaVuSans-49"/>
       </defs>
       <use xlink:href="#DejaVuSans-50"/>
       <use x="63.623047" xlink:href="#DejaVuSans-48"/>
       <use x="127.246094" xlink:href="#DejaVuSans-49"/>
       <use x="190.869141" xlink:href="#DejaVuSans-48"/>
      </g>
     </g>
    </g>
    <g id="xtick_5">
     <g id="line2d_9">
      <path clip-path="url(#pff41de353e)" d="M 541.818575 461.376 
L 541.818575 69.2064 
" style="fill:none;stroke:#b0b0b0;stroke-linecap:square;stroke-width:0.8;"/>
     </g>
     <g id="line2d_10">
      <g>
       <use style="stroke:#000000;stroke-width:0.8;" x="541.818575" xlink:href="#m87ab2f89a5" y="461.376"/>
      </g>
     </g>
     <g id="text_5">
      <!-- 2012 -->
      <g transform="translate(518.738385 487.68144)rotate(-30)scale(0.1 -0.1)">
       <use xlink:href="#DejaVuSans-50"/>
       <use x="63.623047" xlink:href="#DejaVuSans-48"/>
       <use x="127.246094" xlink:href="#DejaVuSans-49"/>
       <use x="190.869141" xlink:href="#DejaVuSans-50"/>
      </g>
     </g>
    </g>
    <g id="xtick_6">
     <g id="line2d_11">
      <path clip-path="url(#pff41de353e)" d="M 633.067203 461.376 
L 633.067203 69.2064 
" style="fill:none;stroke:#b0b0b0;stroke-linecap:square;stroke-width:0.8;"/>
     </g>
     <g id="line2d_12">
      <g>
       <use style="stroke:#000000;stroke-width:0.8;" x="633.067203" xlink:href="#m87ab2f89a5" y="461.376"/>
      </g>
     </g>
     <g id="text_6">
      <!-- 2014 -->
      <g transform="translate(609.987013 487.68144)rotate(-30)scale(0.1 -0.1)">
       <use xlink:href="#DejaVuSans-50"/>
       <use x="63.623047" xlink:href="#DejaVuSans-48"/>
       <use x="127.246094" xlink:href="#DejaVuSans-49"/>
       <use x="190.869141" xlink:href="#DejaVuSans-52"/>
      </g>
     </g>
    </g>
    <g id="xtick_7">
     <g id="line2d_13">
      <path clip-path="url(#pff41de353e)" d="M 724.191004 461.376 
L 724.191004 69.2064 
" style="fill:none;stroke:#b0b0b0;stroke-linecap:square;stroke-width:0.8;"/>
     </g>
     <g id="line2d_14">
      <g>
       <use style="stroke:#000000;stroke-width:0.8;" x="724.191004" xlink:href="#m87ab2f89a5" y="461.376"/>
      </g>
     </g>
     <g id="text_7">
      <!-- 2016 -->
      <g transform="translate(701.110813 487.68144)rotate(-30)scale(0.1 -0.1)">
       <use xlink:href="#DejaVuSans-50"/>
       <use x="63.623047" xlink:href="#DejaVuSans-48"/>
       <use x="127.246094" xlink:href="#DejaVuSans-49"/>
       <use x="190.869141" xlink:href="#DejaVuSans-54"/>
      </g>
     </g>
    </g>
    <g id="xtick_8">
     <g id="line2d_15">
      <path clip-path="url(#pff41de353e)" d="M 815.439631 461.376 
L 815.439631 69.2064 
" style="fill:none;stroke:#b0b0b0;stroke-linecap:square;stroke-width:0.8;"/>
     </g>
     <g id="line2d_16">
      <g>
       <use style="stroke:#000000;stroke-width:0.8;" x="815.439631" xlink:href="#m87ab2f89a5" y="461.376"/>
      </g>
     </g>
     <g id="text_8">
      <!-- 2018 -->
      <g transform="translate(792.359441 487.68144)rotate(-30)scale(0.1 -0.1)">
       <use xlink:href="#DejaVuSans-50"/>
       <use x="63.623047" xlink:href="#DejaVuSans-48"/>
       <use x="127.246094" xlink:href="#DejaVuSans-49"/>
       <use x="190.869141" xlink:href="#DejaVuSans-56"/>
      </g>
     </g>
    </g>
    <g id="xtick_9">
     <g id="line2d_17">
      <path clip-path="url(#pff41de353e)" d="M 906.563432 461.376 
L 906.563432 69.2064 
" style="fill:none;stroke:#b0b0b0;stroke-linecap:square;stroke-width:0.8;"/>
     </g>
     <g id="line2d_18">
      <g>
       <use style="stroke:#000000;stroke-width:0.8;" x="906.563432" xlink:href="#m87ab2f89a5" y="461.376"/>
      </g>
     </g>
     <g id="text_9">
      <!-- 2020 -->
      <g transform="translate(883.483242 487.68144)rotate(-30)scale(0.1 -0.1)">
       <use xlink:href="#DejaVuSans-50"/>
       <use x="63.623047" xlink:href="#DejaVuSans-48"/>
       <use x="127.246094" xlink:href="#DejaVuSans-50"/>
       <use x="190.869141" xlink:href="#DejaVuSans-48"/>
      </g>
     </g>
    </g>
    <g id="text_10">
     <!-- Date -->
     <g transform="translate(554.833219 501.08094)scale(0.1 -0.1)">
      <defs>
       <path d="M 19.671875 64.796875 
L 19.671875 8.109375 
L 31.59375 8.109375 
Q 46.6875 8.109375 53.6875 14.9375 
Q 60.6875 21.78125 60.6875 36.53125 
Q 60.6875 51.171875 53.6875 57.984375 
Q 46.6875 64.796875 31.59375 64.796875 
z
M 9.8125 72.90625 
L 30.078125 72.90625 
Q 51.265625 72.90625 61.171875 64.09375 
Q 71.09375 55.28125 71.09375 36.53125 
Q 71.09375 17.671875 61.125 8.828125 
Q 51.171875 0 30.078125 0 
L 9.8125 0 
z
" id="DejaVuSans-68"/>
       <path d="M 34.28125 27.484375 
Q 23.390625 27.484375 19.1875 25 
Q 14.984375 22.515625 14.984375 16.5 
Q 14.984375 11.71875 18.140625 8.90625 
Q 21.296875 6.109375 26.703125 6.109375 
Q 34.1875 6.109375 38.703125 11.40625 
Q 43.21875 16.703125 43.21875 25.484375 
L 43.21875 27.484375 
z
M 52.203125 31.203125 
L 52.203125 0 
L 43.21875 0 
L 43.21875 8.296875 
Q 40.140625 3.328125 35.546875 0.953125 
Q 30.953125 -1.421875 24.3125 -1.421875 
Q 15.921875 -1.421875 10.953125 3.296875 
Q 6 8.015625 6 15.921875 
Q 6 25.140625 12.171875 29.828125 
Q 18.359375 34.515625 30.609375 34.515625 
L 43.21875 34.515625 
L 43.21875 35.40625 
Q 43.21875 41.609375 39.140625 45 
Q 35.0625 48.390625 27.6875 48.390625 
Q 23 48.390625 18.546875 47.265625 
Q 14.109375 46.140625 10.015625 43.890625 
L 10.015625 52.203125 
Q 14.9375 54.109375 19.578125 55.046875 
Q 24.21875 56 28.609375 56 
Q 40.484375 56 46.34375 49.84375 
Q 52.203125 43.703125 52.203125 31.203125 
z
" id="DejaVuSans-97"/>
       <path d="M 18.3125 70.21875 
L 18.3125 54.6875 
L 36.8125 54.6875 
L 36.8125 47.703125 
L 18.3125 47.703125 
L 18.3125 18.015625 
Q 18.3125 11.328125 20.140625 9.421875 
Q 21.96875 7.515625 27.59375 7.515625 
L 36.8125 7.515625 
L 36.8125 0 
L 27.59375 0 
Q 17.1875 0 13.234375 3.875 
Q 9.28125 7.765625 9.28125 18.015625 
L 9.28125 47.703125 
L 2.6875 47.703125 
L 2.6875 54.6875 
L 9.28125 54.6875 
L 9.28125 70.21875 
z
" id="DejaVuSans-116"/>
       <path d="M 56.203125 29.59375 
L 56.203125 25.203125 
L 14.890625 25.203125 
Q 15.484375 15.921875 20.484375 11.0625 
Q 25.484375 6.203125 34.421875 6.203125 
Q 39.59375 6.203125 44.453125 7.46875 
Q 49.3125 8.734375 54.109375 11.28125 
L 54.109375 2.78125 
Q 49.265625 0.734375 44.1875 -0.34375 
Q 39.109375 -1.421875 33.890625 -1.421875 
Q 20.796875 -1.421875 13.15625 6.1875 
Q 5.515625 13.8125 5.515625 26.8125 
Q 5.515625 40.234375 12.765625 48.109375 
Q 20.015625 56 32.328125 56 
Q 43.359375 56 49.78125 48.890625 
Q 56.203125 41.796875 56.203125 29.59375 
z
M 47.21875 32.234375 
Q 47.125 39.59375 43.09375 43.984375 
Q 39.0625 48.390625 32.421875 48.390625 
Q 24.90625 48.390625 20.390625 44.140625 
Q 15.875 39.890625 15.1875 32.171875 
z
" id="DejaVuSans-101"/>
      </defs>
      <use xlink:href="#DejaVuSans-68"/>
      <use x="77.001953" xlink:href="#DejaVuSans-97"/>
      <use x="138.28125" xlink:href="#DejaVuSans-116"/>
      <use x="177.490234" xlink:href="#DejaVuSans-101"/>
     </g>
    </g>
   </g>
   <g id="matplotlib.axis_2">
    <g id="ytick_1">
     <g id="line2d_19">
      <path clip-path="url(#pff41de353e)" d="M 138.24 443.550109 
L 995.328 443.550109 
" style="fill:none;stroke:#b0b0b0;stroke-linecap:square;stroke-width:0.8;"/>
     </g>
     <g id="line2d_20">
      <defs>
       <path d="M 0 0 
L -3.5 0 
" id="m2750e716f1" style="stroke:#000000;stroke-width:0.8;"/>
      </defs>
      <g>
       <use style="stroke:#000000;stroke-width:0.8;" x="138.24" xlink:href="#m2750e716f1" y="443.550109"/>
      </g>
     </g>
     <g id="text_11">
      <!-- 20 -->
      <g transform="translate(118.515 447.349328)scale(0.1 -0.1)">
       <use xlink:href="#DejaVuSans-50"/>
       <use x="63.623047" xlink:href="#DejaVuSans-48"/>
      </g>
     </g>
    </g>
    <g id="ytick_2">
     <g id="line2d_21">
      <path clip-path="url(#pff41de353e)" d="M 138.24 384.130473 
L 995.328 384.130473 
" style="fill:none;stroke:#b0b0b0;stroke-linecap:square;stroke-width:0.8;"/>
     </g>
     <g id="line2d_22">
      <g>
       <use style="stroke:#000000;stroke-width:0.8;" x="138.24" xlink:href="#m2750e716f1" y="384.130473"/>
      </g>
     </g>
     <g id="text_12">
      <!-- 25 -->
      <g transform="translate(118.515 387.929691)scale(0.1 -0.1)">
       <defs>
        <path d="M 10.796875 72.90625 
L 49.515625 72.90625 
L 49.515625 64.59375 
L 19.828125 64.59375 
L 19.828125 46.734375 
Q 21.96875 47.46875 24.109375 47.828125 
Q 26.265625 48.1875 28.421875 48.1875 
Q 40.625 48.1875 47.75 41.5 
Q 54.890625 34.8125 54.890625 23.390625 
Q 54.890625 11.625 47.5625 5.09375 
Q 40.234375 -1.421875 26.90625 -1.421875 
Q 22.3125 -1.421875 17.546875 -0.640625 
Q 12.796875 0.140625 7.71875 1.703125 
L 7.71875 11.625 
Q 12.109375 9.234375 16.796875 8.0625 
Q 21.484375 6.890625 26.703125 6.890625 
Q 35.15625 6.890625 40.078125 11.328125 
Q 45.015625 15.765625 45.015625 23.390625 
Q 45.015625 31 40.078125 35.4375 
Q 35.15625 39.890625 26.703125 39.890625 
Q 22.75 39.890625 18.8125 39.015625 
Q 14.890625 38.140625 10.796875 36.28125 
z
" id="DejaVuSans-53"/>
       </defs>
       <use xlink:href="#DejaVuSans-50"/>
       <use x="63.623047" xlink:href="#DejaVuSans-53"/>
      </g>
     </g>
    </g>
    <g id="ytick_3">
     <g id="line2d_23">
      <path clip-path="url(#pff41de353e)" d="M 138.24 324.710836 
L 995.328 324.710836 
" style="fill:none;stroke:#b0b0b0;stroke-linecap:square;stroke-width:0.8;"/>
     </g>
     <g id="line2d_24">
      <g>
       <use style="stroke:#000000;stroke-width:0.8;" x="138.24" xlink:href="#m2750e716f1" y="324.710836"/>
      </g>
     </g>
     <g id="text_13">
      <!-- 30 -->
      <g transform="translate(118.515 328.510055)scale(0.1 -0.1)">
       <defs>
        <path d="M 40.578125 39.3125 
Q 47.65625 37.796875 51.625 33 
Q 55.609375 28.21875 55.609375 21.1875 
Q 55.609375 10.40625 48.1875 4.484375 
Q 40.765625 -1.421875 27.09375 -1.421875 
Q 22.515625 -1.421875 17.65625 -0.515625 
Q 12.796875 0.390625 7.625 2.203125 
L 7.625 11.71875 
Q 11.71875 9.328125 16.59375 8.109375 
Q 21.484375 6.890625 26.8125 6.890625 
Q 36.078125 6.890625 40.9375 10.546875 
Q 45.796875 14.203125 45.796875 21.1875 
Q 45.796875 27.640625 41.28125 31.265625 
Q 36.765625 34.90625 28.71875 34.90625 
L 20.21875 34.90625 
L 20.21875 43.015625 
L 29.109375 43.015625 
Q 36.375 43.015625 40.234375 45.921875 
Q 44.09375 48.828125 44.09375 54.296875 
Q 44.09375 59.90625 40.109375 62.90625 
Q 36.140625 65.921875 28.71875 65.921875 
Q 24.65625 65.921875 20.015625 65.03125 
Q 15.375 64.15625 9.8125 62.3125 
L 9.8125 71.09375 
Q 15.4375 72.65625 20.34375 73.4375 
Q 25.25 74.21875 29.59375 74.21875 
Q 40.828125 74.21875 47.359375 69.109375 
Q 53.90625 64.015625 53.90625 55.328125 
Q 53.90625 49.265625 50.4375 45.09375 
Q 46.96875 40.921875 40.578125 39.3125 
z
" id="DejaVuSans-51"/>
       </defs>
       <use xlink:href="#DejaVuSans-51"/>
       <use x="63.623047" xlink:href="#DejaVuSans-48"/>
      </g>
     </g>
    </g>
    <g id="ytick_4">
     <g id="line2d_25">
      <path clip-path="url(#pff41de353e)" d="M 138.24 265.2912 
L 995.328 265.2912 
" style="fill:none;stroke:#b0b0b0;stroke-linecap:square;stroke-width:0.8;"/>
     </g>
     <g id="line2d_26">
      <g>
       <use style="stroke:#000000;stroke-width:0.8;" x="138.24" xlink:href="#m2750e716f1" y="265.2912"/>
      </g>
     </g>
     <g id="text_14">
      <!-- 35 -->
      <g transform="translate(118.515 269.090419)scale(0.1 -0.1)">
       <use xlink:href="#DejaVuSans-51"/>
       <use x="63.623047" xlink:href="#DejaVuSans-53"/>
      </g>
     </g>
    </g>
    <g id="ytick_5">
     <g id="line2d_27">
      <path clip-path="url(#pff41de353e)" d="M 138.24 205.871564 
L 995.328 205.871564 
" style="fill:none;stroke:#b0b0b0;stroke-linecap:square;stroke-width:0.8;"/>
     </g>
     <g id="line2d_28">
      <g>
       <use style="stroke:#000000;stroke-width:0.8;" x="138.24" xlink:href="#m2750e716f1" y="205.871564"/>
      </g>
     </g>
     <g id="text_15">
      <!-- 40 -->
      <g transform="translate(118.515 209.670782)scale(0.1 -0.1)">
       <use xlink:href="#DejaVuSans-52"/>
       <use x="63.623047" xlink:href="#DejaVuSans-48"/>
      </g>
     </g>
    </g>
    <g id="ytick_6">
     <g id="line2d_29">
      <path clip-path="url(#pff41de353e)" d="M 138.24 146.451927 
L 995.328 146.451927 
" style="fill:none;stroke:#b0b0b0;stroke-linecap:square;stroke-width:0.8;"/>
     </g>
     <g id="line2d_30">
      <g>
       <use style="stroke:#000000;stroke-width:0.8;" x="138.24" xlink:href="#m2750e716f1" y="146.451927"/>
      </g>
     </g>
     <g id="text_16">
      <!-- 45 -->
      <g transform="translate(118.515 150.251146)scale(0.1 -0.1)">
       <use xlink:href="#DejaVuSans-52"/>
       <use x="63.623047" xlink:href="#DejaVuSans-53"/>
      </g>
     </g>
    </g>
    <g id="ytick_7">
     <g id="line2d_31">
      <path clip-path="url(#pff41de353e)" d="M 138.24 87.032291 
L 995.328 87.032291 
" style="fill:none;stroke:#b0b0b0;stroke-linecap:square;stroke-width:0.8;"/>
     </g>
     <g id="line2d_32">
      <g>
       <use style="stroke:#000000;stroke-width:0.8;" x="138.24" xlink:href="#m2750e716f1" y="87.032291"/>
      </g>
     </g>
     <g id="text_17">
      <!-- 50 -->
      <g transform="translate(118.515 90.83151)scale(0.1 -0.1)">
       <use xlink:href="#DejaVuSans-53"/>
       <use x="63.623047" xlink:href="#DejaVuSans-48"/>
      </g>
     </g>
    </g>
    <g id="text_18">
     <!-- Party Affiliation % -->
     <g transform="translate(112.435313 309.616981)rotate(-90)scale(0.1 -0.1)">
      <defs>
       <path d="M 19.671875 64.796875 
L 19.671875 37.40625 
L 32.078125 37.40625 
Q 38.96875 37.40625 42.71875 40.96875 
Q 46.484375 44.53125 46.484375 51.125 
Q 46.484375 57.671875 42.71875 61.234375 
Q 38.96875 64.796875 32.078125 64.796875 
z
M 9.8125 72.90625 
L 32.078125 72.90625 
Q 44.34375 72.90625 50.609375 67.359375 
Q 56.890625 61.8125 56.890625 51.125 
Q 56.890625 40.328125 50.609375 34.8125 
Q 44.34375 29.296875 32.078125 29.296875 
L 19.671875 29.296875 
L 19.671875 0 
L 9.8125 0 
z
" id="DejaVuSans-80"/>
       <path d="M 41.109375 46.296875 
Q 39.59375 47.171875 37.8125 47.578125 
Q 36.03125 48 33.890625 48 
Q 26.265625 48 22.1875 43.046875 
Q 18.109375 38.09375 18.109375 28.8125 
L 18.109375 0 
L 9.078125 0 
L 9.078125 54.6875 
L 18.109375 54.6875 
L 18.109375 46.1875 
Q 20.953125 51.171875 25.484375 53.578125 
Q 30.03125 56 36.53125 56 
Q 37.453125 56 38.578125 55.875 
Q 39.703125 55.765625 41.0625 55.515625 
z
" id="DejaVuSans-114"/>
       <path d="M 32.171875 -5.078125 
Q 28.375 -14.84375 24.75 -17.8125 
Q 21.140625 -20.796875 15.09375 -20.796875 
L 7.90625 -20.796875 
L 7.90625 -13.28125 
L 13.1875 -13.28125 
Q 16.890625 -13.28125 18.9375 -11.515625 
Q 21 -9.765625 23.484375 -3.21875 
L 25.09375 0.875 
L 2.984375 54.6875 
L 12.5 54.6875 
L 29.59375 11.921875 
L 46.6875 54.6875 
L 56.203125 54.6875 
z
" id="DejaVuSans-121"/>
       <path id="DejaVuSans-32"/>
       <path d="M 34.1875 63.1875 
L 20.796875 26.90625 
L 47.609375 26.90625 
z
M 28.609375 72.90625 
L 39.796875 72.90625 
L 67.578125 0 
L 57.328125 0 
L 50.6875 18.703125 
L 17.828125 18.703125 
L 11.1875 0 
L 0.78125 0 
z
" id="DejaVuSans-65"/>
       <path d="M 37.109375 75.984375 
L 37.109375 68.5 
L 28.515625 68.5 
Q 23.6875 68.5 21.796875 66.546875 
Q 19.921875 64.59375 19.921875 59.515625 
L 19.921875 54.6875 
L 34.71875 54.6875 
L 34.71875 47.703125 
L 19.921875 47.703125 
L 19.921875 0 
L 10.890625 0 
L 10.890625 47.703125 
L 2.296875 47.703125 
L 2.296875 54.6875 
L 10.890625 54.6875 
L 10.890625 58.5 
Q 10.890625 67.625 15.140625 71.796875 
Q 19.390625 75.984375 28.609375 75.984375 
z
" id="DejaVuSans-102"/>
       <path d="M 9.421875 54.6875 
L 18.40625 54.6875 
L 18.40625 0 
L 9.421875 0 
z
M 9.421875 75.984375 
L 18.40625 75.984375 
L 18.40625 64.59375 
L 9.421875 64.59375 
z
" id="DejaVuSans-105"/>
       <path d="M 9.421875 75.984375 
L 18.40625 75.984375 
L 18.40625 0 
L 9.421875 0 
z
" id="DejaVuSans-108"/>
       <path d="M 30.609375 48.390625 
Q 23.390625 48.390625 19.1875 42.75 
Q 14.984375 37.109375 14.984375 27.296875 
Q 14.984375 17.484375 19.15625 11.84375 
Q 23.34375 6.203125 30.609375 6.203125 
Q 37.796875 6.203125 41.984375 11.859375 
Q 46.1875 17.53125 46.1875 27.296875 
Q 46.1875 37.015625 41.984375 42.703125 
Q 37.796875 48.390625 30.609375 48.390625 
z
M 30.609375 56 
Q 42.328125 56 49.015625 48.375 
Q 55.71875 40.765625 55.71875 27.296875 
Q 55.71875 13.875 49.015625 6.21875 
Q 42.328125 -1.421875 30.609375 -1.421875 
Q 18.84375 -1.421875 12.171875 6.21875 
Q 5.515625 13.875 5.515625 27.296875 
Q 5.515625 40.765625 12.171875 48.375 
Q 18.84375 56 30.609375 56 
z
" id="DejaVuSans-111"/>
       <path d="M 54.890625 33.015625 
L 54.890625 0 
L 45.90625 0 
L 45.90625 32.71875 
Q 45.90625 40.484375 42.875 44.328125 
Q 39.84375 48.1875 33.796875 48.1875 
Q 26.515625 48.1875 22.3125 43.546875 
Q 18.109375 38.921875 18.109375 30.90625 
L 18.109375 0 
L 9.078125 0 
L 9.078125 54.6875 
L 18.109375 54.6875 
L 18.109375 46.1875 
Q 21.34375 51.125 25.703125 53.5625 
Q 30.078125 56 35.796875 56 
Q 45.21875 56 50.046875 50.171875 
Q 54.890625 44.34375 54.890625 33.015625 
z
" id="DejaVuSans-110"/>
       <path d="M 72.703125 32.078125 
Q 68.453125 32.078125 66.03125 28.46875 
Q 63.625 24.859375 63.625 18.40625 
Q 63.625 12.0625 66.03125 8.421875 
Q 68.453125 4.78125 72.703125 4.78125 
Q 76.859375 4.78125 79.265625 8.421875 
Q 81.6875 12.0625 81.6875 18.40625 
Q 81.6875 24.8125 79.265625 28.4375 
Q 76.859375 32.078125 72.703125 32.078125 
z
M 72.703125 38.28125 
Q 80.421875 38.28125 84.953125 32.90625 
Q 89.5 27.546875 89.5 18.40625 
Q 89.5 9.28125 84.9375 3.921875 
Q 80.375 -1.421875 72.703125 -1.421875 
Q 64.890625 -1.421875 60.34375 3.921875 
Q 55.8125 9.28125 55.8125 18.40625 
Q 55.8125 27.59375 60.375 32.9375 
Q 64.9375 38.28125 72.703125 38.28125 
z
M 22.3125 68.015625 
Q 18.109375 68.015625 15.6875 64.375 
Q 13.28125 60.75 13.28125 54.390625 
Q 13.28125 47.953125 15.671875 44.328125 
Q 18.0625 40.71875 22.3125 40.71875 
Q 26.5625 40.71875 28.96875 44.328125 
Q 31.390625 47.953125 31.390625 54.390625 
Q 31.390625 60.6875 28.953125 64.34375 
Q 26.515625 68.015625 22.3125 68.015625 
z
M 66.40625 74.21875 
L 74.21875 74.21875 
L 28.609375 -1.421875 
L 20.796875 -1.421875 
z
M 22.3125 74.21875 
Q 30.03125 74.21875 34.609375 68.875 
Q 39.203125 63.53125 39.203125 54.390625 
Q 39.203125 45.171875 34.640625 39.84375 
Q 30.078125 34.515625 22.3125 34.515625 
Q 14.546875 34.515625 10.03125 39.859375 
Q 5.515625 45.21875 5.515625 54.390625 
Q 5.515625 63.484375 10.046875 68.84375 
Q 14.59375 74.21875 22.3125 74.21875 
z
" id="DejaVuSans-37"/>
      </defs>
      <use xlink:href="#DejaVuSans-80"/>
      <use x="55.802734" xlink:href="#DejaVuSans-97"/>
      <use x="117.082031" xlink:href="#DejaVuSans-114"/>
      <use x="158.195312" xlink:href="#DejaVuSans-116"/>
      <use x="197.404297" xlink:href="#DejaVuSans-121"/>
      <use x="256.583984" xlink:href="#DejaVuSans-32"/>
      <use x="288.371094" xlink:href="#DejaVuSans-65"/>
      <use x="353.154297" xlink:href="#DejaVuSans-102"/>
      <use x="388.359375" xlink:href="#DejaVuSans-102"/>
      <use x="423.564453" xlink:href="#DejaVuSans-105"/>
      <use x="451.347656" xlink:href="#DejaVuSans-108"/>
      <use x="479.130859" xlink:href="#DejaVuSans-105"/>
      <use x="506.914062" xlink:href="#DejaVuSans-97"/>
      <use x="568.193359" xlink:href="#DejaVuSans-116"/>
      <use x="607.402344" xlink:href="#DejaVuSans-105"/>
      <use x="635.185547" xlink:href="#DejaVuSans-111"/>
      <use x="696.367188" xlink:href="#DejaVuSans-110"/>
      <use x="759.746094" xlink:href="#DejaVuSans-32"/>
      <use x="791.533203" xlink:href="#DejaVuSans-37"/>
     </g>
    </g>
   </g>
   <g id="line2d_33">
    <path clip-path="url(#pff41de353e)" d="M 177.198545 300.942982 
L 178.072335 289.059055 
L 178.446817 300.942982 
L 180.568878 312.826909 
L 181.567495 289.059055 
L 181.941976 300.942982 
L 182.815766 324.710836 
L 185.062654 289.059055 
L 185.437136 312.826909 
L 187.684024 253.407273 
L 188.932295 277.175127 
L 190.305393 300.942982 
L 192.926763 300.942982 
L 194.674343 289.059055 
L 196.297095 289.059055 
L 198.543984 300.942982 
L 202.039143 241.523345 
L 203.412242 265.2912 
L 204.660513 253.407273 
L 206.408093 265.2912 
L 207.781191 241.523345 
L 209.029462 241.523345 
L 210.40256 217.755491 
L 211.27635 253.407273 
L 212.274967 265.2912 
L 212.524622 289.059055 
L 212.899103 229.639418 
L 213.89772 265.2912 
L 214.77151 277.175127 
L 215.894954 229.639418 
L 217.392879 229.639418 
L 219.390113 241.523345 
L 220.888039 289.059055 
L 223.0101 241.523345 
L 223.509409 265.2912 
L 224.383198 289.059055 
L 227.004568 241.523345 
L 227.379049 277.175127 
L 229.625938 229.639418 
L 230.874209 265.2912 
L 232.247307 265.2912 
L 232.621789 300.942982 
L 233.994887 265.2912 
L 236.116948 265.2912 
L 237.490046 277.175127 
L 237.864528 265.2912 
L 240.111416 336.594764 
L 240.485897 289.059055 
L 244.480365 289.059055 
L 245.104501 336.594764 
L 246.103118 324.710836 
L 247.975525 300.942982 
L 248.350006 348.478691 
L 249.723105 289.059055 
L 250.097586 289.059055 
L 251.845166 336.594764 
L 252.594128 300.942982 
L 253.967227 289.059055 
L 254.466535 324.710836 
L 254.965844 324.710836 
L 256.214115 300.942982 
L 258.336176 324.710836 
L 259.334793 277.175127 
L 259.709275 289.059055 
L 260.208583 300.942982 
L 261.456854 300.942982 
L 261.956163 312.826909 
L 262.705126 289.059055 
L 264.952014 253.407273 
L 265.451322 324.710836 
L 266.325112 312.826909 
L 266.699593 336.594764 
L 268.946482 277.175127 
L 269.320963 277.175127 
L 270.694061 300.942982 
L 272.816123 289.059055 
L 273.190604 324.710836 
L 275.562319 300.942982 
L 276.810591 300.942982 
L 277.185072 348.478691 
L 280.30575 312.826909 
L 280.680231 312.826909 
L 282.92712 324.710836 
L 283.800909 336.594764 
L 284.175391 336.594764 
L 284.674699 324.710836 
L 287.171242 324.710836 
L 288.169859 265.2912 
L 289.917439 372.246545 
L 291.540191 312.826909 
L 293.412598 336.594764 
L 294.286388 300.942982 
L 295.534659 312.826909 
L 296.907758 289.059055 
L 299.4043 324.710836 
L 300.402917 312.826909 
L 303.024287 336.594764 
L 303.398768 348.478691 
L 304.771866 336.594764 
L 306.394619 312.826909 
L 307.268409 396.0144 
L 310.888395 336.594764 
L 311.262877 324.710836 
L 314.383555 360.362618 
L 315.257345 348.478691 
L 315.631826 324.710836 
L 317.753887 372.246545 
L 318.752504 372.246545 
L 321.373874 360.362618 
L 322.497318 312.826909 
L 323.995243 336.594764 
L 325.243515 324.710836 
L 326.616613 336.594764 
L 329.237983 360.362618 
L 329.986945 360.362618 
L 332.733142 312.826909 
L 333.981413 360.362618 
L 337.102092 384.130473 
L 337.851054 336.594764 
L 340.597251 360.362618 
L 341.845522 348.478691 
L 344.9662 372.246545 
L 345.83999 348.478691 
L 348.336533 348.478691 
L 349.33515 396.0144 
L 351.956519 384.130473 
L 353.079963 360.362618 
L 355.451679 348.478691 
L 356.200642 324.710836 
L 357.199259 360.362618 
L 359.820628 324.710836 
L 360.569591 348.478691 
L 363.066133 336.594764 
L 364.189577 348.478691 
L 364.564059 372.246545 
L 365.81233 336.594764 
L 367.55991 348.478691 
L 368.558527 336.594764 
L 371.429551 372.246545 
L 372.927476 384.130473 
L 374.550229 360.362618 
L 375.424019 360.362618 
L 378.170215 372.246545 
L 379.418487 336.594764 
L 380.167449 324.710836 
L 383.288127 360.362618 
L 385.160534 336.594764 
L 386.783287 312.826909 
L 388.530867 360.362618 
L 390.403274 324.710836 
L 390.777755 300.942982 
L 393.024643 348.478691 
L 393.898433 360.362618 
L 394.772223 324.710836 
L 396.394976 289.059055 
L 399.016345 372.246545 
L 401.637715 360.362618 
L 402.636332 372.246545 
L 406.131491 324.710836 
L 408.752861 360.362618 
L 410.001132 336.594764 
L 411.37423 360.362618 
L 412.996983 384.130473 
L 415.74318 348.478691 
L 416.991451 396.0144 
L 418.739031 360.362618 
L 420.861092 300.942982 
L 423.607289 372.246545 
L 425.604523 336.594764 
L 428.850028 336.594764 
L 429.723818 372.246545 
L 432.22036 348.478691 
L 435.341038 348.478691 
L 436.714137 372.246545 
L 439.210679 360.362618 
L 441.083086 384.130473 
L 448.073405 336.594764 
L 451.568564 348.478691 
L 454.564415 360.362618 
L 458.434056 336.594764 
L 461.180253 348.478691 
L 462.803006 372.246545 
L 465.923684 324.710836 
L 468.545053 348.478691 
L 470.791942 348.478691 
L 474.162274 372.246545 
L 476.533989 324.710836 
L 477.657433 336.594764 
L 480.40363 348.478691 
L 482.525691 324.710836 
L 483.773962 324.710836 
L 484.647752 336.594764 
L 485.521542 324.710836 
L 486.395332 324.710836 
L 487.269122 336.594764 
L 488.142912 336.594764 
L 489.016702 372.246545 
L 490.889109 336.594764 
L 493.510478 289.059055 
L 497.879427 348.478691 
L 500.251143 348.478691 
L 503.871129 336.594764 
L 506.617326 384.130473 
L 508.240079 372.246545 
L 509.862831 312.826909 
L 511.735238 336.594764 
L 516.104188 324.710836 
L 519.599347 336.594764 
L 520.223483 384.130473 
L 523.094507 396.0144 
L 523.968296 348.478691 
L 527.463456 384.130473 
L 528.337246 431.666182 
L 530.958615 372.246545 
L 534.453775 360.362618 
L 537.574453 384.130473 
L 539.696514 324.710836 
L 542.317884 360.362618 
L 550.181992 360.362618 
L 554.17646 336.594764 
L 557.172311 348.478691 
L 558.046101 360.362618 
L 561.541261 324.710836 
L 565.535729 360.362618 
L 566.784 348.478691 
L 569.40537 372.246545 
L 570.778468 348.478691 
L 572.900529 360.362618 
L 575.147417 348.478691 
L 579.890848 324.710836 
L 580.889465 348.478691 
L 581.638428 360.362618 
L 583.011526 336.594764 
L 585.258414 384.130473 
L 585.88255 384.130473 
L 586.881167 360.362618 
L 588.254265 360.362618 
L 592.123906 348.478691 
L 599.114225 372.246545 
L 602.609385 348.478691 
L 606.354198 372.246545 
L 608.725914 372.246545 
L 611.222456 384.130473 
L 614.717616 396.0144 
L 618.337602 419.782255 
L 621.832762 443.550109 
L 626.201711 407.898327 
L 629.696871 396.0144 
L 633.566511 396.0144 
L 637.560979 407.898327 
L 641.056139 384.130473 
L 644.551298 384.130473 
L 647.172668 407.898327 
L 648.920248 396.0144 
L 652.415407 396.0144 
L 656.409875 407.898327 
L 660.279516 372.246545 
L 663.774675 384.130473 
L 666.396045 372.246545 
L 668.518106 289.059055 
L 670.640167 372.246545 
L 671.638784 348.478691 
L 675.633252 360.362618 
L 679.128412 336.594764 
L 683.372534 384.130473 
L 686.618039 360.362618 
L 690.862161 396.0144 
L 694.232494 372.246545 
L 697.602826 384.130473 
L 702.096603 407.898327 
L 705.591762 360.362618 
L 709.960711 360.362618 
L 713.455871 384.130473 
L 716.95103 348.478691 
L 720.44619 360.362618 
L 724.815139 372.246545 
L 726.687546 336.594764 
L 728.310299 324.710836 
L 731.805458 372.246545 
L 736.174408 384.130473 
L 739.669567 312.826909 
L 741.417147 360.362618 
L 743.164726 360.362618 
L 744.787479 348.478691 
L 748.407466 348.478691 
L 751.028835 360.362618 
L 755.397785 336.594764 
L 756.271574 360.362618 
L 763.261893 360.362618 
L 766.757053 348.478691 
L 770.252212 348.478691 
L 773.747372 312.826909 
L 777.242531 372.246545 
L 778.241148 396.0144 
L 781.611481 384.130473 
L 785.10664 336.594764 
L 789.47559 372.246545 
L 792.970749 384.130473 
L 796.465908 348.478691 
L 800.834858 336.594764 
L 804.454844 396.0144 
L 807.950004 384.130473 
L 811.944472 384.130473 
L 815.564458 419.782255 
L 819.309272 348.478691 
L 822.804432 407.898327 
L 826.7989 396.0144 
L 830.418886 372.246545 
L 834.288527 360.362618 
L 838.033341 372.246545 
L 841.902982 348.478691 
L 846.147104 372.246545 
L 851.265016 336.594764 
L 853.387077 348.478691 
L 857.381545 372.246545 
L 861.126359 384.130473 
L 863.498074 384.130473 
L 864.871173 312.826909 
L 866.244271 324.710836 
L 868.366332 372.246545 
L 872.235973 360.362618 
L 874.233207 336.594764 
L 875.980787 324.710836 
L 877.728366 360.362618 
L 880.100082 372.246545 
L 882.097316 360.362618 
L 883.595241 336.594764 
L 885.342821 372.246545 
L 887.464882 360.362618 
L 889.212462 372.246545 
L 891.584177 336.594764 
L 893.20693 372.246545 
L 895.079337 372.246545 
L 896.702089 348.478691 
L 898.948977 324.710836 
L 902.818618 348.478691 
L 906.688259 360.362618 
L 908.435839 324.710836 
L 910.682727 289.059055 
L 912.430307 324.710836 
L 915.550985 324.710836 
L 917.9227 360.362618 
L 919.545453 324.710836 
L 921.667514 348.478691 
L 925.037846 384.130473 
L 926.410945 372.246545 
L 929.281969 348.478691 
L 932.901955 372.246545 
L 936.896423 336.594764 
L 938.644003 348.478691 
L 940.641237 336.594764 
L 942.638471 312.826909 
L 945.135013 324.710836 
L 948.380519 384.130473 
L 952.624641 396.0144 
L 954.746702 384.130473 
L 956.369455 372.246545 
L 956.369455 372.246545 
" style="fill:none;stroke:#ff0000;stroke-linecap:square;stroke-width:1.5;"/>
   </g>
   <g id="line2d_34">
    <path clip-path="url(#pff41de353e)" d="M 177.198545 205.871564 
L 178.446817 289.059055 
L 181.567495 253.407273 
L 181.941976 265.2912 
L 182.815766 217.755491 
L 185.062654 312.826909 
L 185.437136 265.2912 
L 187.684024 324.710836 
L 188.932295 324.710836 
L 190.305393 300.942982 
L 192.302627 312.826909 
L 192.926763 300.942982 
L 194.674343 312.826909 
L 196.297095 312.826909 
L 198.543984 289.059055 
L 200.666045 360.362618 
L 202.039143 348.478691 
L 203.412242 348.478691 
L 204.660513 336.594764 
L 206.408093 300.942982 
L 207.781191 336.594764 
L 209.029462 336.594764 
L 210.40256 348.478691 
L 211.27635 360.362618 
L 212.274967 324.710836 
L 212.524622 300.942982 
L 212.899103 336.594764 
L 213.89772 336.594764 
L 214.77151 360.362618 
L 215.894954 360.362618 
L 217.392879 312.826909 
L 219.390113 336.594764 
L 220.888039 324.710836 
L 223.0101 360.362618 
L 223.509409 336.594764 
L 224.383198 253.407273 
L 227.004568 265.2912 
L 227.379049 324.710836 
L 229.126629 312.826909 
L 229.625938 360.362618 
L 230.874209 312.826909 
L 232.247307 312.826909 
L 232.621789 336.594764 
L 233.994887 289.059055 
L 236.116948 336.594764 
L 237.490046 277.175127 
L 237.864528 324.710836 
L 240.111416 289.059055 
L 240.485897 277.175127 
L 242.233477 277.175127 
L 243.481748 312.826909 
L 244.480365 300.942982 
L 245.104501 312.826909 
L 246.103118 289.059055 
L 247.975525 312.826909 
L 248.350006 241.523345 
L 249.723105 265.2912 
L 250.097586 324.710836 
L 251.845166 277.175127 
L 252.594128 300.942982 
L 253.967227 277.175127 
L 254.466535 241.523345 
L 254.965844 289.059055 
L 256.214115 277.175127 
L 258.336176 289.059055 
L 259.334793 289.059055 
L 259.709275 324.710836 
L 260.208583 241.523345 
L 261.456854 289.059055 
L 261.956163 277.175127 
L 262.705126 324.710836 
L 264.952014 312.826909 
L 265.451322 229.639418 
L 266.325112 253.407273 
L 266.699593 253.407273 
L 268.946482 289.059055 
L 269.320963 277.175127 
L 270.694061 300.942982 
L 272.816123 277.175127 
L 273.190604 217.755491 
L 275.562319 312.826909 
L 276.810591 289.059055 
L 277.185072 253.407273 
L 280.30575 289.059055 
L 280.680231 289.059055 
L 282.92712 265.2912 
L 283.800909 241.523345 
L 284.175391 265.2912 
L 284.674699 253.407273 
L 287.171242 265.2912 
L 288.169859 360.362618 
L 289.917439 253.407273 
L 291.540191 289.059055 
L 293.412598 241.523345 
L 294.286388 336.594764 
L 295.534659 312.826909 
L 296.907758 300.942982 
L 299.4043 289.059055 
L 300.402917 277.175127 
L 303.024287 312.826909 
L 303.398768 265.2912 
L 304.771866 277.175127 
L 306.394619 300.942982 
L 307.268409 205.871564 
L 310.888395 253.407273 
L 311.262877 277.175127 
L 314.383555 182.103709 
L 315.257345 205.871564 
L 315.631826 300.942982 
L 317.753887 241.523345 
L 318.752504 193.987636 
L 321.373874 241.523345 
L 322.497318 265.2912 
L 323.995243 253.407273 
L 326.616613 253.407273 
L 329.237983 205.871564 
L 329.986945 229.639418 
L 332.733142 253.407273 
L 337.102092 170.219782 
L 337.851054 241.523345 
L 340.597251 170.219782 
L 341.845522 205.871564 
L 344.9662 193.987636 
L 345.83999 229.639418 
L 348.336533 229.639418 
L 349.33515 170.219782 
L 351.956519 193.987636 
L 353.079963 229.639418 
L 355.451679 193.987636 
L 356.200642 253.407273 
L 357.199259 217.755491 
L 359.820628 265.2912 
L 360.569591 229.639418 
L 363.066133 253.407273 
L 364.189577 277.175127 
L 365.81233 277.175127 
L 367.55991 241.523345 
L 368.558527 289.059055 
L 371.429551 265.2912 
L 372.927476 229.639418 
L 374.550229 241.523345 
L 375.424019 265.2912 
L 378.170215 253.407273 
L 379.418487 253.407273 
L 380.167449 265.2912 
L 383.288127 265.2912 
L 385.160534 289.059055 
L 386.783287 300.942982 
L 388.530867 241.523345 
L 390.403274 277.175127 
L 390.777755 312.826909 
L 393.024643 265.2912 
L 393.898433 229.639418 
L 394.772223 289.059055 
L 396.394976 300.942982 
L 398.267382 241.523345 
L 399.016345 265.2912 
L 401.637715 289.059055 
L 402.636332 265.2912 
L 406.131491 289.059055 
L 410.001132 253.407273 
L 411.37423 253.407273 
L 412.996983 265.2912 
L 415.74318 265.2912 
L 416.991451 205.871564 
L 418.739031 253.407273 
L 420.861092 277.175127 
L 423.607289 241.523345 
L 425.604523 241.523345 
L 428.850028 289.059055 
L 429.723818 217.755491 
L 432.22036 265.2912 
L 435.341038 253.407273 
L 436.714137 205.871564 
L 439.210679 229.639418 
L 441.083086 193.987636 
L 448.073405 253.407273 
L 451.568564 253.407273 
L 454.564415 205.871564 
L 458.434056 217.755491 
L 461.180253 205.871564 
L 462.803006 182.103709 
L 465.923684 253.407273 
L 468.545053 205.871564 
L 470.791942 289.059055 
L 474.162274 205.871564 
L 476.533989 241.523345 
L 477.657433 205.871564 
L 480.40363 193.987636 
L 482.525691 193.987636 
L 483.773962 277.175127 
L 484.647752 241.523345 
L 485.521542 277.175127 
L 486.395332 253.407273 
L 487.269122 277.175127 
L 488.142912 253.407273 
L 489.016702 193.987636 
L 490.889109 205.871564 
L 493.510478 277.175127 
L 497.005638 241.523345 
L 497.879427 182.103709 
L 500.251143 205.871564 
L 503.871129 217.755491 
L 506.617326 205.871564 
L 508.240079 182.103709 
L 509.862831 253.407273 
L 511.735238 241.523345 
L 516.104188 229.639418 
L 519.599347 217.755491 
L 520.223483 182.103709 
L 523.094507 182.103709 
L 523.968296 158.335855 
L 527.463456 158.335855 
L 528.337246 134.568 
L 530.958615 193.987636 
L 534.453775 265.2912 
L 537.574453 146.451927 
L 539.696514 182.103709 
L 542.317884 182.103709 
L 545.813043 170.219782 
L 547.560623 170.219782 
L 550.181992 182.103709 
L 554.17646 193.987636 
L 557.172311 229.639418 
L 558.046101 158.335855 
L 561.541261 217.755491 
L 565.535729 193.987636 
L 566.784 193.987636 
L 569.40537 182.103709 
L 570.778468 193.987636 
L 572.900529 253.407273 
L 575.147417 229.639418 
L 579.890848 289.059055 
L 580.889465 229.639418 
L 581.638428 229.639418 
L 583.011526 241.523345 
L 585.258414 217.755491 
L 585.88255 265.2912 
L 586.881167 253.407273 
L 588.254265 229.639418 
L 592.123906 229.639418 
L 595.619066 253.407273 
L 599.114225 205.871564 
L 602.609385 217.755491 
L 606.354198 193.987636 
L 608.725914 193.987636 
L 611.222456 182.103709 
L 614.717616 170.219782 
L 618.337602 146.451927 
L 621.832762 122.684073 
L 626.201711 134.568 
L 629.696871 158.335855 
L 633.566511 146.451927 
L 637.560979 146.451927 
L 641.056139 182.103709 
L 644.551298 182.103709 
L 647.172668 170.219782 
L 648.920248 170.219782 
L 652.415407 134.568 
L 656.409875 146.451927 
L 660.279516 205.871564 
L 663.774675 122.684073 
L 666.396045 182.103709 
L 668.518106 265.2912 
L 671.638784 193.987636 
L 675.633252 205.871564 
L 679.128412 182.103709 
L 683.372534 170.219782 
L 686.618039 158.335855 
L 690.862161 182.103709 
L 694.232494 193.987636 
L 697.602826 193.987636 
L 702.096603 134.568 
L 705.591762 193.987636 
L 709.960711 170.219782 
L 713.455871 182.103709 
L 716.95103 217.755491 
L 720.44619 205.871564 
L 724.815139 158.335855 
L 726.687546 217.755491 
L 728.310299 241.523345 
L 731.805458 229.639418 
L 736.174408 158.335855 
L 739.669567 241.523345 
L 741.417147 146.451927 
L 743.164726 193.987636 
L 744.787479 217.755491 
L 748.407466 182.103709 
L 751.028835 229.639418 
L 755.397785 229.639418 
L 756.271574 205.871564 
L 758.892944 253.407273 
L 762.263276 253.407273 
L 763.261893 205.871564 
L 766.757053 217.755491 
L 770.252212 158.335855 
L 773.747372 241.523345 
L 777.242531 182.103709 
L 778.241148 193.987636 
L 781.611481 158.335855 
L 785.10664 205.871564 
L 789.47559 182.103709 
L 792.970749 146.451927 
L 796.465908 193.987636 
L 800.834858 205.871564 
L 804.454844 182.103709 
L 807.950004 182.103709 
L 811.944472 134.568 
L 815.564458 158.335855 
L 819.309272 182.103709 
L 822.804432 146.451927 
L 826.7989 146.451927 
L 830.418886 170.219782 
L 834.288527 170.219782 
L 838.033341 193.987636 
L 841.902982 170.219782 
L 846.147104 158.335855 
L 849.517436 217.755491 
L 851.265016 253.407273 
L 853.387077 217.755491 
L 861.126359 217.755491 
L 863.498074 193.987636 
L 864.871173 241.523345 
L 866.244271 229.639418 
L 868.366332 182.103709 
L 872.235973 158.335855 
L 874.233207 205.871564 
L 875.980787 229.639418 
L 877.728366 146.451927 
L 880.100082 134.568 
L 882.097316 193.987636 
L 883.595241 229.639418 
L 885.342821 193.987636 
L 887.464882 205.871564 
L 889.212462 182.103709 
L 891.584177 229.639418 
L 893.20693 158.335855 
L 895.079337 170.219782 
L 896.702089 217.755491 
L 898.948977 229.639418 
L 902.818618 193.987636 
L 906.688259 146.451927 
L 908.435839 182.103709 
L 910.682727 217.755491 
L 912.430307 217.755491 
L 914.177887 229.639418 
L 915.550985 253.407273 
L 917.9227 217.755491 
L 919.545453 253.407273 
L 921.667514 241.523345 
L 925.037846 205.871564 
L 926.410945 229.639418 
L 929.281969 229.639418 
L 932.901955 193.987636 
L 936.896423 205.871564 
L 938.644003 182.103709 
L 940.641237 229.639418 
L 942.638471 253.407273 
L 945.135013 229.639418 
L 952.624641 146.451927 
L 954.746702 87.032291 
L 956.369455 193.987636 
L 956.369455 193.987636 
" style="fill:none;stroke:#ffa500;stroke-linecap:square;stroke-width:1.5;"/>
   </g>
   <g id="line2d_35">
    <path clip-path="url(#pff41de353e)" d="M 177.198545 348.478691 
L 178.072335 312.826909 
L 178.446817 277.175127 
L 180.568878 289.059055 
L 181.567495 324.710836 
L 181.941976 300.942982 
L 182.815766 312.826909 
L 185.062654 265.2912 
L 185.437136 289.059055 
L 187.684024 300.942982 
L 188.932295 277.175127 
L 190.305393 277.175127 
L 192.302627 253.407273 
L 192.926763 289.059055 
L 194.674343 277.175127 
L 196.297095 265.2912 
L 198.543984 277.175127 
L 200.666045 253.407273 
L 202.039143 277.175127 
L 203.412242 253.407273 
L 204.660513 277.175127 
L 206.408093 300.942982 
L 207.781191 277.175127 
L 209.029462 289.059055 
L 210.40256 312.826909 
L 211.27635 241.523345 
L 212.274967 277.175127 
L 212.524622 265.2912 
L 212.899103 289.059055 
L 213.89772 253.407273 
L 214.77151 241.523345 
L 215.894954 265.2912 
L 217.392879 324.710836 
L 219.390113 300.942982 
L 220.888039 265.2912 
L 223.0101 265.2912 
L 223.509409 253.407273 
L 224.383198 324.710836 
L 227.004568 348.478691 
L 227.379049 265.2912 
L 229.126629 336.594764 
L 229.625938 277.175127 
L 230.874209 300.942982 
L 232.247307 300.942982 
L 232.621789 241.523345 
L 233.994887 312.826909 
L 236.116948 265.2912 
L 237.490046 312.826909 
L 237.864528 277.175127 
L 240.111416 253.407273 
L 240.485897 312.826909 
L 242.233477 312.826909 
L 243.481748 277.175127 
L 244.480365 277.175127 
L 245.104501 229.639418 
L 246.103118 265.2912 
L 247.975525 253.407273 
L 248.350006 289.059055 
L 249.723105 312.826909 
L 250.097586 265.2912 
L 252.594128 265.2912 
L 254.466535 312.826909 
L 254.965844 253.407273 
L 256.214115 289.059055 
L 258.336176 253.407273 
L 259.334793 289.059055 
L 259.709275 265.2912 
L 260.208583 324.710836 
L 261.956163 277.175127 
L 262.705126 277.175127 
L 264.952014 312.826909 
L 265.451322 312.826909 
L 266.325112 300.942982 
L 268.946482 300.942982 
L 269.320963 312.826909 
L 270.694061 277.175127 
L 272.816123 324.710836 
L 273.190604 312.826909 
L 275.562319 265.2912 
L 276.810591 277.175127 
L 277.185072 289.059055 
L 280.30575 265.2912 
L 280.680231 265.2912 
L 282.92712 277.175127 
L 283.800909 300.942982 
L 284.175391 277.175127 
L 287.171242 277.175127 
L 288.169859 241.523345 
L 289.917439 241.523345 
L 291.540191 277.175127 
L 293.412598 289.059055 
L 294.286388 229.639418 
L 295.534659 253.407273 
L 296.907758 277.175127 
L 299.4043 265.2912 
L 300.402917 277.175127 
L 303.024287 229.639418 
L 303.398768 277.175127 
L 304.771866 265.2912 
L 306.394619 277.175127 
L 307.268409 265.2912 
L 310.888395 277.175127 
L 311.262877 265.2912 
L 314.383555 312.826909 
L 315.257345 300.942982 
L 315.631826 253.407273 
L 317.753887 265.2912 
L 318.752504 300.942982 
L 321.373874 265.2912 
L 322.497318 300.942982 
L 323.995243 289.059055 
L 325.243515 277.175127 
L 326.616613 277.175127 
L 329.237983 289.059055 
L 329.986945 277.175127 
L 332.733142 312.826909 
L 333.981413 277.175127 
L 337.102092 312.826909 
L 337.851054 300.942982 
L 340.597251 324.710836 
L 341.845522 324.710836 
L 344.9662 300.942982 
L 345.83999 289.059055 
L 348.336533 300.942982 
L 349.33515 312.826909 
L 351.956519 277.175127 
L 353.079963 289.059055 
L 355.451679 312.826909 
L 356.200642 300.942982 
L 357.199259 289.059055 
L 359.820628 277.175127 
L 360.569591 277.175127 
L 363.066133 265.2912 
L 364.189577 241.523345 
L 364.564059 205.871564 
L 365.81233 253.407273 
L 367.55991 277.175127 
L 368.558527 229.639418 
L 371.429551 241.523345 
L 372.927476 253.407273 
L 374.550229 253.407273 
L 375.424019 241.523345 
L 378.170215 241.523345 
L 379.418487 289.059055 
L 380.167449 277.175127 
L 383.288127 265.2912 
L 385.160534 253.407273 
L 386.783287 265.2912 
L 388.530867 253.407273 
L 390.403274 265.2912 
L 393.024643 265.2912 
L 393.898433 289.059055 
L 394.772223 265.2912 
L 396.394976 277.175127 
L 398.267382 289.059055 
L 399.016345 217.755491 
L 401.637715 241.523345 
L 402.636332 241.523345 
L 406.131491 253.407273 
L 408.752861 253.407273 
L 410.001132 289.059055 
L 411.37423 277.175127 
L 412.996983 229.639418 
L 415.74318 265.2912 
L 416.991451 265.2912 
L 418.739031 253.407273 
L 420.861092 300.942982 
L 423.607289 265.2912 
L 425.604523 300.942982 
L 428.850028 241.523345 
L 429.723818 289.059055 
L 432.22036 265.2912 
L 435.341038 265.2912 
L 436.714137 289.059055 
L 439.210679 289.059055 
L 441.083086 300.942982 
L 448.073405 289.059055 
L 451.568564 277.175127 
L 454.564415 289.059055 
L 458.434056 324.710836 
L 461.180253 312.826909 
L 462.803006 336.594764 
L 465.923684 300.942982 
L 468.545053 324.710836 
L 470.791942 253.407273 
L 474.162274 324.710836 
L 476.533989 312.826909 
L 477.657433 324.710836 
L 480.40363 324.710836 
L 482.525691 348.478691 
L 483.773962 300.942982 
L 484.647752 324.710836 
L 485.521542 289.059055 
L 486.395332 324.710836 
L 487.269122 289.059055 
L 489.016702 312.826909 
L 490.889109 336.594764 
L 493.510478 300.942982 
L 497.005638 312.826909 
L 497.879427 348.478691 
L 500.251143 312.826909 
L 503.871129 336.594764 
L 506.617326 300.942982 
L 508.240079 324.710836 
L 509.862831 300.942982 
L 511.735238 300.942982 
L 516.104188 336.594764 
L 519.599347 324.710836 
L 520.223483 324.710836 
L 523.094507 277.175127 
L 523.968296 372.246545 
L 527.463456 324.710836 
L 528.337246 300.942982 
L 530.958615 312.826909 
L 534.453775 253.407273 
L 537.574453 348.478691 
L 539.696514 360.362618 
L 542.317884 324.710836 
L 545.813043 336.594764 
L 547.560623 336.594764 
L 550.181992 324.710836 
L 554.17646 336.594764 
L 557.172311 300.942982 
L 558.046101 336.594764 
L 561.541261 324.710836 
L 566.784 324.710836 
L 569.40537 336.594764 
L 570.778468 312.826909 
L 572.900529 265.2912 
L 575.147417 300.942982 
L 579.890848 265.2912 
L 580.889465 289.059055 
L 581.638428 300.942982 
L 583.011526 312.826909 
L 585.258414 277.175127 
L 585.88255 229.639418 
L 586.881167 277.175127 
L 588.254265 289.059055 
L 592.123906 300.942982 
L 595.619066 265.2912 
L 599.114225 289.059055 
L 602.609385 300.942982 
L 606.354198 312.826909 
L 618.337602 312.826909 
L 621.832762 324.710836 
L 626.201711 348.478691 
L 629.696871 324.710836 
L 633.566511 336.594764 
L 637.560979 324.710836 
L 641.056139 324.710836 
L 644.551298 336.594764 
L 647.172668 300.942982 
L 648.920248 312.826909 
L 652.415407 348.478691 
L 656.409875 336.594764 
L 660.279516 312.826909 
L 663.774675 372.246545 
L 666.396045 324.710836 
L 668.518106 336.594764 
L 670.640167 300.942982 
L 671.638784 348.478691 
L 675.633252 312.826909 
L 679.128412 348.478691 
L 683.372534 336.594764 
L 686.618039 348.478691 
L 690.862161 312.826909 
L 694.232494 324.710836 
L 697.602826 312.826909 
L 702.096603 348.478691 
L 705.591762 312.826909 
L 709.960711 360.362618 
L 713.455871 336.594764 
L 716.95103 324.710836 
L 720.44619 324.710836 
L 724.815139 336.594764 
L 726.687546 312.826909 
L 728.310299 324.710836 
L 731.805458 300.942982 
L 736.174408 312.826909 
L 739.669567 324.710836 
L 741.417147 348.478691 
L 743.164726 324.710836 
L 744.787479 312.826909 
L 748.407466 348.478691 
L 751.028835 312.826909 
L 755.397785 312.826909 
L 756.271574 300.942982 
L 758.892944 300.942982 
L 762.263276 312.826909 
L 763.261893 324.710836 
L 766.757053 336.594764 
L 770.252212 384.130473 
L 773.747372 312.826909 
L 777.242531 324.710836 
L 778.241148 312.826909 
L 781.611481 348.478691 
L 785.10664 348.478691 
L 789.47559 324.710836 
L 792.970749 348.478691 
L 796.465908 348.478691 
L 800.834858 324.710836 
L 804.454844 312.826909 
L 807.950004 324.710836 
L 811.944472 360.362618 
L 815.564458 300.942982 
L 819.309272 360.362618 
L 822.804432 336.594764 
L 834.288527 336.594764 
L 838.033341 324.710836 
L 841.902982 360.362618 
L 846.147104 360.362618 
L 849.517436 324.710836 
L 851.265016 265.2912 
L 853.387077 312.826909 
L 857.381545 300.942982 
L 861.126359 277.175127 
L 863.498074 300.942982 
L 864.871173 324.710836 
L 868.366332 324.710836 
L 872.235973 372.246545 
L 874.233207 336.594764 
L 875.980787 312.826909 
L 877.728366 360.362618 
L 880.100082 360.362618 
L 882.097316 336.594764 
L 883.595241 360.362618 
L 885.342821 324.710836 
L 887.464882 336.594764 
L 889.212462 324.710836 
L 891.584177 312.826909 
L 893.20693 336.594764 
L 895.079337 336.594764 
L 896.702089 312.826909 
L 898.948977 312.826909 
L 902.818618 348.478691 
L 906.688259 360.362618 
L 908.435839 360.362618 
L 910.682727 372.246545 
L 912.430307 336.594764 
L 914.177887 324.710836 
L 915.550985 324.710836 
L 917.9227 312.826909 
L 925.037846 312.826909 
L 926.410945 289.059055 
L 929.281969 336.594764 
L 932.901955 312.826909 
L 936.896423 324.710836 
L 938.644003 360.362618 
L 940.641237 312.826909 
L 948.380519 312.826909 
L 952.624641 324.710836 
L 954.746702 384.130473 
L 956.369455 300.942982 
L 956.369455 300.942982 
" style="fill:none;stroke:#0000ff;stroke-linecap:square;stroke-width:1.5;"/>
   </g>
   <g id="patch_3">
    <path d="M 138.24 461.376 
L 138.24 69.2064 
" style="fill:none;stroke:#000000;stroke-linecap:square;stroke-linejoin:miter;stroke-width:0.8;"/>
   </g>
   <g id="patch_4">
    <path d="M 995.328 461.376 
L 995.328 69.2064 
" style="fill:none;stroke:#000000;stroke-linecap:square;stroke-linejoin:miter;stroke-width:0.8;"/>
   </g>
   <g id="patch_5">
    <path d="M 138.24 461.376 
L 995.328 461.376 
" style="fill:none;stroke:#000000;stroke-linecap:square;stroke-linejoin:miter;stroke-width:0.8;"/>
   </g>
   <g id="patch_6">
    <path d="M 138.24 69.2064 
L 995.328 69.2064 
" style="fill:none;stroke:#000000;stroke-linecap:square;stroke-linejoin:miter;stroke-width:0.8;"/>
   </g>
   <g id="text_19">
    <!-- 26% -->
    <g transform="translate(956.369455 372.246545)scale(0.1 -0.1)">
     <use xlink:href="#DejaVuSans-50"/>
     <use x="63.623047" xlink:href="#DejaVuSans-54"/>
     <use x="127.246094" xlink:href="#DejaVuSans-37"/>
    </g>
   </g>
   <g id="text_20">
    <!-- 41% -->
    <g transform="translate(956.369455 193.987636)scale(0.1 -0.1)">
     <use xlink:href="#DejaVuSans-52"/>
     <use x="63.623047" xlink:href="#DejaVuSans-49"/>
     <use x="127.246094" xlink:href="#DejaVuSans-37"/>
    </g>
   </g>
   <g id="text_21">
    <!-- 32% -->
    <g transform="translate(956.369455 300.942982)scale(0.1 -0.1)">
     <use xlink:href="#DejaVuSans-51"/>
     <use x="63.623047" xlink:href="#DejaVuSans-50"/>
     <use x="127.246094" xlink:href="#DejaVuSans-37"/>
    </g>
   </g>
   <g id="legend_1">
    <g id="patch_7">
     <path d="M 145.24 121.240775 
L 240.6275 121.240775 
Q 242.6275 121.240775 242.6275 119.240775 
L 242.6275 76.2064 
Q 242.6275 74.2064 240.6275 74.2064 
L 145.24 74.2064 
Q 143.24 74.2064 143.24 76.2064 
L 143.24 119.240775 
Q 143.24 121.240775 145.24 121.240775 
z
" style="fill:#ffffff;opacity:0.8;stroke:#cccccc;stroke-linejoin:miter;"/>
    </g>
    <g id="line2d_36">
     <path d="M 147.24 82.304837 
L 167.24 82.304837 
" style="fill:none;stroke:#ff0000;stroke-linecap:square;stroke-width:1.5;"/>
    </g>
    <g id="line2d_37"/>
    <g id="text_22">
     <!-- Republican -->
     <g transform="translate(175.24 85.804837)scale(0.1 -0.1)">
      <defs>
       <path d="M 44.390625 34.1875 
Q 47.5625 33.109375 50.5625 29.59375 
Q 53.5625 26.078125 56.59375 19.921875 
L 66.609375 0 
L 56 0 
L 46.6875 18.703125 
Q 43.0625 26.03125 39.671875 28.421875 
Q 36.28125 30.8125 30.421875 30.8125 
L 19.671875 30.8125 
L 19.671875 0 
L 9.8125 0 
L 9.8125 72.90625 
L 32.078125 72.90625 
Q 44.578125 72.90625 50.734375 67.671875 
Q 56.890625 62.453125 56.890625 51.90625 
Q 56.890625 45.015625 53.6875 40.46875 
Q 50.484375 35.9375 44.390625 34.1875 
z
M 19.671875 64.796875 
L 19.671875 38.921875 
L 32.078125 38.921875 
Q 39.203125 38.921875 42.84375 42.21875 
Q 46.484375 45.515625 46.484375 51.90625 
Q 46.484375 58.296875 42.84375 61.546875 
Q 39.203125 64.796875 32.078125 64.796875 
z
" id="DejaVuSans-82"/>
       <path d="M 18.109375 8.203125 
L 18.109375 -20.796875 
L 9.078125 -20.796875 
L 9.078125 54.6875 
L 18.109375 54.6875 
L 18.109375 46.390625 
Q 20.953125 51.265625 25.265625 53.625 
Q 29.59375 56 35.59375 56 
Q 45.5625 56 51.78125 48.09375 
Q 58.015625 40.1875 58.015625 27.296875 
Q 58.015625 14.40625 51.78125 6.484375 
Q 45.5625 -1.421875 35.59375 -1.421875 
Q 29.59375 -1.421875 25.265625 0.953125 
Q 20.953125 3.328125 18.109375 8.203125 
z
M 48.6875 27.296875 
Q 48.6875 37.203125 44.609375 42.84375 
Q 40.53125 48.484375 33.40625 48.484375 
Q 26.265625 48.484375 22.1875 42.84375 
Q 18.109375 37.203125 18.109375 27.296875 
Q 18.109375 17.390625 22.1875 11.75 
Q 26.265625 6.109375 33.40625 6.109375 
Q 40.53125 6.109375 44.609375 11.75 
Q 48.6875 17.390625 48.6875 27.296875 
z
" id="DejaVuSans-112"/>
       <path d="M 8.5 21.578125 
L 8.5 54.6875 
L 17.484375 54.6875 
L 17.484375 21.921875 
Q 17.484375 14.15625 20.5 10.265625 
Q 23.53125 6.390625 29.59375 6.390625 
Q 36.859375 6.390625 41.078125 11.03125 
Q 45.3125 15.671875 45.3125 23.6875 
L 45.3125 54.6875 
L 54.296875 54.6875 
L 54.296875 0 
L 45.3125 0 
L 45.3125 8.40625 
Q 42.046875 3.421875 37.71875 1 
Q 33.40625 -1.421875 27.6875 -1.421875 
Q 18.265625 -1.421875 13.375 4.4375 
Q 8.5 10.296875 8.5 21.578125 
z
M 31.109375 56 
z
" id="DejaVuSans-117"/>
       <path d="M 48.6875 27.296875 
Q 48.6875 37.203125 44.609375 42.84375 
Q 40.53125 48.484375 33.40625 48.484375 
Q 26.265625 48.484375 22.1875 42.84375 
Q 18.109375 37.203125 18.109375 27.296875 
Q 18.109375 17.390625 22.1875 11.75 
Q 26.265625 6.109375 33.40625 6.109375 
Q 40.53125 6.109375 44.609375 11.75 
Q 48.6875 17.390625 48.6875 27.296875 
z
M 18.109375 46.390625 
Q 20.953125 51.265625 25.265625 53.625 
Q 29.59375 56 35.59375 56 
Q 45.5625 56 51.78125 48.09375 
Q 58.015625 40.1875 58.015625 27.296875 
Q 58.015625 14.40625 51.78125 6.484375 
Q 45.5625 -1.421875 35.59375 -1.421875 
Q 29.59375 -1.421875 25.265625 0.953125 
Q 20.953125 3.328125 18.109375 8.203125 
L 18.109375 0 
L 9.078125 0 
L 9.078125 75.984375 
L 18.109375 75.984375 
z
" id="DejaVuSans-98"/>
       <path d="M 48.78125 52.59375 
L 48.78125 44.1875 
Q 44.96875 46.296875 41.140625 47.34375 
Q 37.3125 48.390625 33.40625 48.390625 
Q 24.65625 48.390625 19.8125 42.84375 
Q 14.984375 37.3125 14.984375 27.296875 
Q 14.984375 17.28125 19.8125 11.734375 
Q 24.65625 6.203125 33.40625 6.203125 
Q 37.3125 6.203125 41.140625 7.25 
Q 44.96875 8.296875 48.78125 10.40625 
L 48.78125 2.09375 
Q 45.015625 0.34375 40.984375 -0.53125 
Q 36.96875 -1.421875 32.421875 -1.421875 
Q 20.0625 -1.421875 12.78125 6.34375 
Q 5.515625 14.109375 5.515625 27.296875 
Q 5.515625 40.671875 12.859375 48.328125 
Q 20.21875 56 33.015625 56 
Q 37.15625 56 41.109375 55.140625 
Q 45.0625 54.296875 48.78125 52.59375 
z
" id="DejaVuSans-99"/>
      </defs>
      <use xlink:href="#DejaVuSans-82"/>
      <use x="64.982422" xlink:href="#DejaVuSans-101"/>
      <use x="126.505859" xlink:href="#DejaVuSans-112"/>
      <use x="189.982422" xlink:href="#DejaVuSans-117"/>
      <use x="253.361328" xlink:href="#DejaVuSans-98"/>
      <use x="316.837891" xlink:href="#DejaVuSans-108"/>
      <use x="344.621094" xlink:href="#DejaVuSans-105"/>
      <use x="372.404297" xlink:href="#DejaVuSans-99"/>
      <use x="427.384766" xlink:href="#DejaVuSans-97"/>
      <use x="488.664062" xlink:href="#DejaVuSans-110"/>
     </g>
    </g>
    <g id="line2d_38">
     <path d="M 147.24 96.982962 
L 167.24 96.982962 
" style="fill:none;stroke:#ffa500;stroke-linecap:square;stroke-width:1.5;"/>
    </g>
    <g id="line2d_39"/>
    <g id="text_23">
     <!-- Independent -->
     <g transform="translate(175.24 100.482962)scale(0.1 -0.1)">
      <defs>
       <path d="M 9.8125 72.90625 
L 19.671875 72.90625 
L 19.671875 0 
L 9.8125 0 
z
" id="DejaVuSans-73"/>
       <path d="M 45.40625 46.390625 
L 45.40625 75.984375 
L 54.390625 75.984375 
L 54.390625 0 
L 45.40625 0 
L 45.40625 8.203125 
Q 42.578125 3.328125 38.25 0.953125 
Q 33.9375 -1.421875 27.875 -1.421875 
Q 17.96875 -1.421875 11.734375 6.484375 
Q 5.515625 14.40625 5.515625 27.296875 
Q 5.515625 40.1875 11.734375 48.09375 
Q 17.96875 56 27.875 56 
Q 33.9375 56 38.25 53.625 
Q 42.578125 51.265625 45.40625 46.390625 
z
M 14.796875 27.296875 
Q 14.796875 17.390625 18.875 11.75 
Q 22.953125 6.109375 30.078125 6.109375 
Q 37.203125 6.109375 41.296875 11.75 
Q 45.40625 17.390625 45.40625 27.296875 
Q 45.40625 37.203125 41.296875 42.84375 
Q 37.203125 48.484375 30.078125 48.484375 
Q 22.953125 48.484375 18.875 42.84375 
Q 14.796875 37.203125 14.796875 27.296875 
z
" id="DejaVuSans-100"/>
      </defs>
      <use xlink:href="#DejaVuSans-73"/>
      <use x="29.492188" xlink:href="#DejaVuSans-110"/>
      <use x="92.871094" xlink:href="#DejaVuSans-100"/>
      <use x="156.347656" xlink:href="#DejaVuSans-101"/>
      <use x="217.871094" xlink:href="#DejaVuSans-112"/>
      <use x="281.347656" xlink:href="#DejaVuSans-101"/>
      <use x="342.871094" xlink:href="#DejaVuSans-110"/>
      <use x="406.25" xlink:href="#DejaVuSans-100"/>
      <use x="469.726562" xlink:href="#DejaVuSans-101"/>
      <use x="531.25" xlink:href="#DejaVuSans-110"/>
      <use x="594.628906" xlink:href="#DejaVuSans-116"/>
     </g>
    </g>
    <g id="line2d_40">
     <path d="M 147.24 111.661087 
L 167.24 111.661087 
" style="fill:none;stroke:#0000ff;stroke-linecap:square;stroke-width:1.5;"/>
    </g>
    <g id="line2d_41"/>
    <g id="text_24">
     <!-- Democrat -->
     <g transform="translate(175.24 115.161087)scale(0.1 -0.1)">
      <defs>
       <path d="M 52 44.1875 
Q 55.375 50.25 60.0625 53.125 
Q 64.75 56 71.09375 56 
Q 79.640625 56 84.28125 50.015625 
Q 88.921875 44.046875 88.921875 33.015625 
L 88.921875 0 
L 79.890625 0 
L 79.890625 32.71875 
Q 79.890625 40.578125 77.09375 44.375 
Q 74.3125 48.1875 68.609375 48.1875 
Q 61.625 48.1875 57.5625 43.546875 
Q 53.515625 38.921875 53.515625 30.90625 
L 53.515625 0 
L 44.484375 0 
L 44.484375 32.71875 
Q 44.484375 40.625 41.703125 44.40625 
Q 38.921875 48.1875 33.109375 48.1875 
Q 26.21875 48.1875 22.15625 43.53125 
Q 18.109375 38.875 18.109375 30.90625 
L 18.109375 0 
L 9.078125 0 
L 9.078125 54.6875 
L 18.109375 54.6875 
L 18.109375 46.1875 
Q 21.1875 51.21875 25.484375 53.609375 
Q 29.78125 56 35.6875 56 
Q 41.65625 56 45.828125 52.96875 
Q 50 49.953125 52 44.1875 
z
" id="DejaVuSans-109"/>
      </defs>
      <use xlink:href="#DejaVuSans-68"/>
      <use x="77.001953" xlink:href="#DejaVuSans-101"/>
      <use x="138.525391" xlink:href="#DejaVuSans-109"/>
      <use x="235.9375" xlink:href="#DejaVuSans-111"/>
      <use x="297.119141" xlink:href="#DejaVuSans-99"/>
      <use x="352.099609" xlink:href="#DejaVuSans-114"/>
      <use x="393.212891" xlink:href="#DejaVuSans-97"/>
      <use x="454.492188" xlink:href="#DejaVuSans-116"/>
     </g>
    </g>
   </g>
  </g>
 </g>
 <defs>
  <clipPath id="pff41de353e">
   <rect height="392.1696" width="857.088" x="138.24" y="69.2064"/>
  </clipPath>
 </defs>
</svg>
